PathFileType	4	(X/Y/Z)	pose_F01_0-97.trc
DataRate	CameraRate	NumFrames	NumMarkers	Units	OrigDataRate	OrigDataStartFrame	OrigNumFrames
30	30	8	21	m	30	24	97
Frame#	Time	CHip			RHip			RKnee			RAnkle			RBigToe			RSmallToe			RHeel			LHip			LKnee			LAnkle			LBigToe			LSmallToe			LHeel			Neck			Nose			RShoulder			RElbow			RWrist			LShoulder			LElbow			LWrist			
		X1	Y1	Z1	X2	Y2	Z2	X3	Y3	Z3	X4	Y4	Z4	X5	Y5	Z5	X6	Y6	Z6	X7	Y7	Z7	X8	Y8	Z8	X9	Y9	Z9	X10	Y10	Z10	X11	Y11	Z11	X12	Y12	Z12	X13	Y13	Z13	X14	Y14	Z14	X15	Y15	Z15	X16	Y16	Z16	X17	Y17	Z17	X18	Y18	Z18	X19	Y19	Z19	X20	Y20	Z20	X21	Y21	Z21	
24	0.8	-0.2489531818357869	1.880115215309531	-0.49742304861444925	-0.2664685375858783	1.8761777631719576	-0.43341062056553814	-0.2674966461357807	1.7339614943683441	-0.39239457920305415													-0.23006600693920864	1.8826437297863168	-0.561441785942009	-0.22457916862744237	1.7333585998702599	-0.5428351149568035	-0.21646879953452186	1.5868520529700205	-0.5369205435020306	-0.22443129873783485	1.5571293881821473	-0.6170878612962535	-0.2122765903303661	1.567764294098883	-0.62678151805875	-0.22126179271629964	1.5797666815317146	-0.5098835780491159	-0.24235980758137987	2.0503357590490934	-0.4986803907789859	-0.2511517667721179	2.1172998994180348	-0.5597936191041499	-0.2658066409097342	2.049542598591259	-0.40810396013913974	-0.27293532484558547	1.9563664160880583	-0.37438980789739834	-0.2903441402778212	1.8791523092638258	-0.3701123979116105	-0.21889621622890798	2.052528495814644	-0.5901926739374942	-1.4820363863751995	1.873806353248046	0.743074167207194	-0.20704865143423587	1.899350665082992	-0.6152853832770344
25	0.8333333333333334	-0.2491797873603421	1.879860326712449	-0.4975843308670255	-0.26493284004780476	1.8776291344177454	-0.43585525344021536	-0.2674966461357807	1.7339614943683441	-0.39239457920305415													-0.23037670735670665	1.8838168317051882	-0.5618673611543161	-0.22498018083940682	1.7334957441872896	-0.5424891819595198	-0.21672206910623024	1.5855639492771971	-0.5363994230555842	-0.22446918450336478	1.557279251509837	-0.6167651438869458	-0.212950948808463	1.5664877628519565	-0.629948929283653	-0.22126179271629964	1.5797666815317146	-0.5098835780491159	-0.2423842927112435	2.0503651615431524	-0.4987035352132029	-0.25113482614755833	2.1172428152247935	-0.5597795721652536	-0.2658121717192177	2.0495403825768226	-0.40825695920964017	-0.27113813376894463	1.9574732060263935	-0.3768551215669833	-0.28703342500808127	1.88161019706304	-0.366571308615122	-0.2180970349205204	2.052311369029208	-0.5872927047782206	-1.48466146968281	1.8738321731916556	0.7484632256105497	-0.20763435094232752	1.8972962183982682	-0.6171736638337334
26	0.8666666666666667	-0.24900365454178439	1.8796546768318934	-0.4973209623009907	-0.2667415334241076	1.8767535691571937	-0.43326232805430104	-0.2674966461357807	1.7339614943683441	-0.39239457920305415													-0.232217881095612	1.8835692499004195	-0.5595657278373519	-0.22493856883883384	1.7362012502903912	-0.5428394104458593	-0.21827484109533188	1.5882625181730032	-0.5354462175514727	-0.22747655307495104	1.559276197645484	-0.6183969641237733	-0.21534333908538375	1.5674566801946594	-0.6278920615247505	-0.22126179271629964	1.5797666815317146	-0.5098835780491159	-0.24428496725398324	2.050258306746179	-0.49659926323025416	-0.2511066051304977	2.1173355643187546	-0.559819114271148	-0.26769738771242163	2.0471112586877847	-0.4056149728316639	-0.270302489342224	1.957504149211969	-0.37425672483225114	-0.2853267587035928	1.8803392120976115	-0.36854797877667067	-0.2189213671442389	2.052565759284198	-0.5902231395125088	-1.4841659777038758	1.873780183027536	0.7486061130907475	-0.2063957158532445	1.8971439269387165	-0.6184424952559658
27	0.9	-0.24895503095849061	1.8799736446863609	-0.4974724931547889	-0.26669912296664355	1.8766572516335236	-0.43341873701643313	-0.2674966461357807	1.7339614943683441	-0.39239457920305415													-0.23110481986449316	1.8842499806453248	-0.564996443400178	-0.22542475495704134	1.7342581554886796	-0.5421286781569002	-0.21850850083328224	1.5869459904588876	-0.5347855861744162	-0.2245661783377213	1.557587707946581	-0.6170909314115235	-0.21329104948475167	1.567926391749456	-0.6299248243298032	-0.22126179271629964	1.5797666815317146	-0.5098835780491159	-0.24241335149150506	2.0503601654520285	-0.4986772121462365	-0.2501924258279417	2.1171434162203626	-0.5570263058507001	-0.26762934403777006	2.0494871776286363	-0.4061113693883511	-0.2702527621054455	1.9559888253509827	-0.37378485889564833	-0.2803963000029355	1.876807186199791	-0.3604912296665887	-0.21894535141883173	2.0526282322704414	-0.5902084627101591	-1.4836704857249416	1.8737281928634164	0.7487490005709454	-0.20515708076416153	1.8969916354791647	-0.6197113266781984
28	0.9333333333333333	-0.24890166929990729	1.8755223060382784	-0.49685329804940664	-0.2664708418276156	1.8738291127604685	-0.43288320998042534	-0.2674966461357807	1.7339614943683441	-0.39239457920305415													-0.23176689787701474	1.8804490970033556	-0.567504856228547	-0.2248630870700065	1.7296790037199032	-0.5422143899112671	-0.216809099370573	1.5888175938511488	-0.5367060424288401	-0.22791295852370613	1.5586675220460349	-0.6179478111760601	-0.21440697248387097	1.568614587375263	-0.6332273679992685	-0.22126179271629964	1.5797666815317146	-0.5098835780491159	-0.2443513617875838	2.0502530871222486	-0.49654810906953567	-0.24906952788960535	2.1172942450390138	-0.5619358324538074	-0.2676279477102193	2.0482370764142126	-0.4055491328237633	-0.2701470958296051	1.9528558657108517	-0.37284181968560587	-0.28158085980256775	1.8715650197156422	-0.3571773797278492	-0.22093129775376993	2.052545787774663	-0.5880825084178151	-1.4831749937460075	1.8736762026992968	0.7488918880511433	-0.20391844567507852	1.896839344019613	-0.6209801581004308
29	0.9666666666666667	-0.2469409428872322	1.8782068374087713	-0.4993360110125774	-0.26469098954272946	1.8750875396942783	-0.43528500894585137	-0.2674966461357807	1.7339614943683441	-0.39239457920305415													-0.23098247683518153	1.8828841796733817	-0.5648043528688464	-0.22502065057371348	1.7313948343597956	-0.5421807120408341	-0.21699004921526846	1.5874355864509557	-0.5361837296436661	-0.2238971595673879	1.5564861625232156	-0.6131930037073392	-0.2124733573493121	1.5660577200621508	-0.6261757146419163	-0.22126179271629964	1.5797666815317146	-0.5098835780491159	-0.2423393140963953	2.050352144298205	-0.4986528167460983	-0.24613140885826132	2.118192190411931	-0.561126208822808	-0.26560534152131116	2.049480549756684	-0.40758618477131026	-0.2701011882437973	1.9571085764166403	-0.37379781149609287	-0.2797197755492577	1.8745579881505934	-0.3596301298723208	-0.22006069586974694	2.052249625064437	-0.5851301122434114	-1.4826795017670735	1.8736242125351772	0.7490347755313411	-0.20267981058599555	1.8966870525600614	-0.6222489895226633
30	1.0	-0.248968641730377	1.8765779226802397	-0.49708283939604037	-0.26476894698504044	1.8722541567585256	-0.4348269942651384	-0.2674966461357807	1.7339614943683441	-0.39239457920305415													-0.22904493536894213	1.8801661030553518	-0.5665294285328218	-0.2249509946460082	1.730452265397376	-0.542231759308355	-0.21673897542644463	1.588576459718881	-0.5367457224337626	-0.22456111944584342	1.5574287796644022	-0.6171027646566198	-0.21532648557743586	1.567645952625029	-0.6278677637352347	-0.22126179271629964	1.5797666815317146	-0.5098835780491159	-0.2421971171154807	2.0514707333590287	-0.49857472620453147	-0.24393308934105765	2.1192818211864726	-0.5631946028803818	-0.26263746159748635	2.050528216484569	-0.4064732740160173	-0.26995345910111906	1.95677758797593	-0.3732532506396699	-0.2823454453367446	1.8764317664433592	-0.3608196494267196	-0.22005660135303767	2.052259387577464	-0.5851198797952565	-1.4821840097881394	1.8735722223710576	0.749177663011539	-0.20144117549691254	1.8965347611005097	-0.6235178209448957
31	1.0333333333333334	-0.24918927699308813	1.8797135500411555	-0.4974780918086889	-0.2668412267173915	1.8750298387998052	-0.43327594501148553	-0.2674966461357807	1.7339614943683441	-0.39239457920305415													-0.2292042557396403	1.8837619568542452	-0.5586131205719687	-0.22468115154680907	1.7312803080328698	-0.5426070416076625	-0.21659148447394003	1.587629138616468	-0.5371289136683236	-0.22583087937076204	1.5588651103281117	-0.6201172037004428	-0.2142599470002856	1.567896852323563	-0.6331957244851592	-0.22126179271629964	1.5797666815317146	-0.5098835780491159	-0.24127048803472306	2.051331250708503	-0.49557668054827264	-0.2398091366938565	2.120583401907724	-0.5672965984142073	-0.26437813722228626	2.051588852625763	-0.4042784847733073	-0.27190374785533605	1.9555122724629417	-0.37121911157222437	-0.28571866086710446	1.876211024977432	-0.3622981802620012	-0.22016926473438542	2.0510228188949142	-0.5851132526041918	-1.4816885178092052	1.873520232206938	0.7493205504917368	-0.20020254040782956	1.896382469640958	-0.6247866523671283
